<svg xmlns="http://www.w3.org/2000/svg" version="1.1" xmlns:xlink="http://www.w3.org/1999/xlink" xmlns:svgjs="http://svgjs.dev/svgjs" width="1460" height="600" preserveAspectRatio="none" viewBox="0 0 1460 600"><g mask="url(&quot;#SvgjsMask3100&quot;)" fill="none"><rect width="1460" height="600" x="0" y="0" fill="url(&quot;#SvgjsLinearGradient3101&quot;)"></rect><path d="M0 0L511.59 0L0 185.1z" fill="rgba(255, 255, 255, .1)"></path><path d="M0 185.1L511.59 0L859.3499999999999 0L0 379.9z" fill="rgba(255, 255, 255, .075)"></path><path d="M0 379.9L859.3499999999999 0L1167.1499999999999 0L0 478.92999999999995z" fill="rgba(255, 255, 255, .05)"></path><path d="M0 478.92999999999995L1167.1499999999999 0L1277.09 0L0 535.26z" fill="rgba(255, 255, 255, .025)"></path><path d="M1460 600L1305.33 600L1460 545.93z" fill="rgba(0, 0, 0, .1)"></path><path d="M1460 545.93L1305.33 600L1075.9499999999998 600L1460 406.06999999999994z" fill="rgba(0, 0, 0, .075)"></path><path d="M1460 406.07L1075.95 600L651.9000000000001 600L1460 281.31z" fill="rgba(0, 0, 0, .05)"></path><path d="M1460 281.31L651.9000000000001 600L349.2600000000001 600L1460 234.22z" fill="rgba(0, 0, 0, .025)"></path></g><defs><mask id="SvgjsMask3100"><rect width="1460" height="600" fill="#ffffff"></rect></mask><linearGradient x1="50%" y1="100%" x2="50%" y2="0%" gradientUnits="userSpaceOnUse" id="SvgjsLinearGradient3101"><stop stop-color="rgba(174, 161, 100, 1)" offset="0"></stop><stop stop-color="rgba(255, 251, 224, 1)" offset="1"></stop></linearGradient></defs></svg>