<svg xmlns="http://www.w3.org/2000/svg" version="1.1" xmlns:xlink="http://www.w3.org/1999/xlink" xmlns:svgjs="http://svgjs.dev/svgjs" width="1440" height="560" preserveAspectRatio="none" viewBox="0 0 1440 560"><g mask="url(&quot;#SvgjsMask1005&quot;)" fill="none"><rect width="1440" height="560" x="0" y="0" fill="rgba(207, 196, 135, 1)"></rect><path d="M0,526.633C125.573,556.883,258.352,638.818,375.293,583.968C491.595,529.418,529.065,381.934,568.889,259.803C605.385,147.879,605.058,31.821,593.54,-85.338C581.534,-207.458,569.131,-332.001,500.695,-433.854C427.357,-543.002,329.252,-667.196,197.936,-674.11C64.147,-681.154,-20.497,-533.146,-137.253,-467.442C-222.014,-419.744,-327.489,-412.385,-393.72,-341.16C-461.038,-268.766,-483.375,-169.111,-504.473,-72.532C-527.016,30.662,-564.254,141.565,-520.137,237.539C-476.041,333.468,-366.952,376.102,-274.669,427.393C-187.82,475.664,-96.599,503.363,0,526.633" fill="#bcac56"></path><path d="M1440 857.948C1510.661 862.5160000000001 1581.367 908.881 1646.76 881.7239999999999 1713.8980000000001 853.842 1769.414 787.698 1781.694 716.046 1793.646 646.312 1718.182 591.481 1708.517 521.393 1698.759 450.635 1762.129 373.797 1726 312.18 1690.497 251.632 1607.001 236.015 1537.15 229.137 1473.993 222.918 1419.09 265.013 1356.552 275.801 1282.794 288.524 1183.567 238.90800000000002 1137.685 298.043 1090.862 358.39099999999996 1166.921 444.303 1166.55 520.684 1166.251 582.233 1120.923 639.211 1135.74 698.951 1151.638 763.049 1191.204 825.4739999999999 1249.734 856.06 1307.108 886.0419999999999 1375.399 853.7719999999999 1440 857.948" fill="#e3dcb8"></path></g><defs><mask id="SvgjsMask1005"><rect width="1440" height="560" fill="#ffffff"></rect></mask></defs></svg>